# xmcd
#
# Track frame offsets:
#	150
#	17366
#	35948
#	49325
#	71280
#	93402
#	109279
#	133579
#	158424
#	176484
#	194012
#	209337
#	234637
#	256932
#	285747
#	307825
#
# Disc length: 4253 seconds
#
# Revision: 1
# Processed by: cddbd v1.5.1PL0 Copyright (c) Steve Scherf et al.
# Submitted via: EasyCDDAExtractor 7.0.0.1
#
DISCID=de109b10
DTITLE=Ben Harper
DYEAR=1900
DGENRE=
TTITLE0=Walk Away
TTITLE1=Fight for your mind
TTITLE2=Oppression
TTITLE3=Ground on Down
TTITLE4=Please me like you want to
TTITLE5=Burn on down
TTITLE6=Excuse me mr
TTITLE7=Whipping boy
TTITLE8=Breakin' down
TTITLE9=Waiting on an angel
TTITLE10=Forever
TTITLE11=Welcome to the cruel world
TTITLE12=The will to live
TTITLE13=Roses from my friends
TTITLE14=Jah worl
TTITLE15=Glory and consequence
EXTD=
EXTT0=
EXTT1=
EXTT2=
EXTT3=
EXTT4=
EXTT5=
EXTT6=
EXTT7=
EXTT8=
EXTT9=
EXTT10=
EXTT11=
EXTT12=
EXTT13=
EXTT14=
EXTT15=
PLAYORDER=
